<?xml version="1.0" encoding="UTF-8"?>
<!DOCTYPE svg PUBLIC "-//W3C//DTD SVG 1.1//EN" "http://www.w3.org/Graphics/SVG/1.1/DTD/svg11.dtd">
<!-- Creator: CorelDRAW -->
<svg xmlns="http://www.w3.org/2000/svg" xml:space="preserve" width="65px" height="50px" version="1.1" style="shape-rendering:geometricPrecision; text-rendering:geometricPrecision; image-rendering:optimizeQuality; fill-rule:evenodd; clip-rule:evenodd"
viewBox="0 0 6.49 4.99"
 xmlns:xlink="http://www.w3.org/1999/xlink"
 xmlns:xodm="http://www.corel.com/coreldraw/odm/2003">
 <defs>
  <style type="text/css">
   <![CDATA[
    .fil0 {fill:#E31E24}
    .fil1 {fill:#00A0E3}
    .fil2 {fill:#009846}
   ]]>
  </style>
 </defs>
 <g id="Layer_x0020_1">
  <metadata id="CorelCorpID_0Corel-Layer"/>
  <path class="fil0" d="M3.24 0l0 0 -1.62 2.5 0 0 3.24 0 0 0 -1.62 -2.5 0 0zm0.69 2l-0.69 -1.06 -0.53 0.81 -0.03 0.05 -0.13 0.2 0.69 0 0.69 0z"/>
  <path class="fil1" d="M4.86 2.5l0 0 -1.62 2.49 0 0 3.25 0 0 0 -1.63 -2.49 0 0zm0.7 1.99l-0.7 -1.06 -0.52 0.81 -0.04 0.06 -0.13 0.19 0.69 0 0.7 0z"/>
  <path class="fil2" d="M1.62 2.5l0 0 -1.62 2.49 0 0 3.24 0 0 0 -1.62 -2.49 0 0zm0.69 1.99l-0.69 -1.06 -0.53 0.81 -0.03 0.06 -0.13 0.19 0.69 0 0.69 0z"/>
 </g>
</svg>
