<?xml version="1.0" encoding="utf-8"?>
<!-- Generator: Adobe Illustrator 13.0.1, SVG Export Plug-In . SVG Version: 6.00 Build 14948)  -->
<!DOCTYPE svg PUBLIC "-//W3C//DTD SVG 1.1//EN" "http://www.w3.org/Graphics/SVG/1.1/DTD/svg11.dtd">
<svg version="1.1"
	 id="Слой_1" xmlns:v="http://schemas.microsoft.com/visio/2003/SVGExtensions/" xmlns:ev="http://www.w3.org/2001/xml-events"
	 xmlns="http://www.w3.org/2000/svg" xmlns:xlink="http://www.w3.org/1999/xlink" x="0px" y="0px" width="329.043px"
	 height="287.278px" viewBox="0 0 329.043 287.278" enable-background="new 0 0 329.043 287.278" xml:space="preserve">
<title>Drawing1</title>
<v:documentProperties  v:viewMarkup="false" v:metric="true" v:langID="1049">
	<v:userDefs>
		<v:ud  v:nameU="msvConvertTheme"></v:ud>
	</v:userDefs>
</v:documentProperties>
<g>
	<title>Страница-1</title>
	<v:pageProperties  v:shadowOffsetY="-9" v:shadowOffsetX="9" v:drawingUnits="19" v:pageScale="1" v:drawingScale="1">
		</v:pageProperties>
	<g id="shape1-1" transform="translate(0.5,-32.74)">
		<title>Лист.1</title>
		<path fill="#8DB1E2" stroke="#283E59" stroke-linecap="round" stroke-linejoin="round" stroke-miterlimit="3" d="M55.971,72.11H0
			V287.28h52.65v-13.27h-38.97V85.79h42.29V72.11L55.971,72.11z"/>
	</g>
	<g id="shape2-3" transform="translate(277.538,-24.811)">
		<title>Лист.2</title>
		<path fill="#8DB1E2" stroke="#283E59" stroke-linecap="round" stroke-linejoin="round" stroke-miterlimit="3" d="M28.861,259.8
			v25.82c0,0.92-0.74,1.66-1.66,1.66c-0.26,0-0.521-0.07-0.76-0.19l-25.55-13.1c-0.811-0.41-1.12-1.41-0.711-2.22
			c0.16-0.33,0.421-0.57,0.73-0.75l25.55-12.711c0.83-0.42,1.81-0.069,2.23,0.74C28.79,259.28,28.861,259.54,28.861,259.8z"/>
	</g>
	<g id="shape3-5" transform="translate(245.107,-32.2218)">
		<title>Лист.3</title>
		<path fill="#8DB1E2" stroke="#283E59" stroke-linecap="round" stroke-linejoin="round" stroke-miterlimit="3" d="M63.541,273.291
			v13.989H83.44l-0.109-215.9H0.001v13.99l69.75-0.1L69.7,273.291H63.541L63.541,273.291z"/>
	</g>
	<g id="shape4-7" transform="translate(276.89,-255.412)">
		<title>Лист.4</title>
		<desc>тм</desc>
		<v:textBlock  v:tabSpace="42.5197" v:margins="rect(0,0,0,0)"></v:textBlock>
		<v:textRect  width="52.11" height="26.8667" cy="273.846" cx="26.055"></v:textRect>
		<path fill="none" d="M52.11,260.41H0.001v26.87H52.11V260.41"/>
		<g enable-background="new    ">
			<path d="M20.31,270.07h-4.979v12.78h-5.67v-12.78h-4.98v-4.5h15.63V270.07z"/>
			<path d="M22.11,282.85v-17.28h5.67c0.859,0.7,1.67,1.53,2.43,2.49s1.44,1.95,2.041,2.97c0.34,0.561,0.64,1.115,0.899,1.665
				c0.26,0.551,0.49,1.075,0.69,1.575h0.06c0.34-0.88,0.705-1.689,1.095-2.43c0.391-0.74,0.795-1.42,1.215-2.04
				c0.841-1.24,1.625-2.215,2.355-2.925s1.195-1.146,1.395-1.306h5.671v17.28H39.96v-9.57c-0.619,0.54-1.189,1.23-1.709,2.07
				c-0.521,0.84-0.98,1.71-1.381,2.61c-0.22,0.52-0.415,1.034-0.584,1.545c-0.171,0.51-0.315,0.985-0.436,1.425h-3.96
				c-0.101-0.4-0.226-0.825-0.375-1.275c-0.149-0.449-0.315-0.895-0.495-1.335c-0.42-1-0.91-1.954-1.47-2.865
				c-0.561-0.909-1.15-1.635-1.771-2.175v9.57H22.11z"/>
			<v:paragraph  v:horizAlign="1"></v:paragraph>
			<v:tabList></v:tabList>
		</g>
	</g>
	<g id="shape37-11" transform="translate(87.5719,-196.929)">
		<title>Лист.37</title>
		<path fill="#8DB1E2" stroke="#283E59" stroke-linecap="round" stroke-linejoin="round" stroke-miterlimit="3" d="M5.85,287.28
			h45.5l7.601-13.98l-45.16-0.02v-53.91H140.3v53.91H95.071l7.54,13.98l44.479,0.02c3.65,0.106,6.759-2.635,7.11-6.27v-68.43
			c0.14-3.508-2.555-6.483-6.061-6.69H5.951c-3.301,0.249-5.874,2.961-5.95,6.27v69.06C0.294,284.36,2.723,286.877,5.85,287.28z"/>
	</g>
	<g id="shape5-13" transform="translate(56.7459,-39.9262)">
		<title>Лист.5</title>
		
			<path fill="none" stroke="#283E59" stroke-width="11.9056" stroke-linecap="round" stroke-linejoin="round" stroke-miterlimit="3" d="
			M107.79,87.45l108,199.83H0L107.79,87.45L107.79,87.45"/>
	</g>
	<g id="shape6-16" transform="translate(58.5424,-227.821)">
		<title>Лист.6</title>
		<path fill="#8DB1E2" stroke="#283E59" stroke-linecap="round" stroke-linejoin="round" stroke-miterlimit="3" d="M0.001,262.82
			v22.8c0,0.92,0.739,1.66,1.66,1.66c0.27,0,0.529-0.07,0.76-0.19l22.56-11.56c0.811-0.41,1.12-1.41,0.71-2.23
			c-0.16-0.32-0.42-0.57-0.75-0.74L2.4,261.33c-0.81-0.39-1.81-0.07-2.21,0.75C0.07,262.32,0.001,262.56,0.001,262.82z"/>
	</g>
	<g id="shape7-18" transform="translate(124.047,-113.792)">
		<title>Лист.7</title>
		
			<path fill="none" stroke="#000000" stroke-width="0.6976" stroke-linecap="round" stroke-linejoin="round" stroke-miterlimit="3" d="
			M0,287.07l41.25-76.28l41.25,76.491"/>
	</g>
	<g id="shape8-21" transform="translate(97.9283,-66.4599)">
		<title>Лист.8</title>
		
			<path fill="#8DB1E2" stroke="#283E59" stroke-width="0.75" stroke-linecap="round" stroke-linejoin="round" stroke-miterlimit="3" d="
			M0.001,287.281l26.29-48.091l25.88,48.091H0.001L0.001,287.281z"/>
	</g>
	<g id="shape9-23" transform="translate(97.9283,-66.4599)">
		<title>Лист.9</title>
		
			<path fill="none" stroke="#283E59" stroke-width="5.4412" stroke-linecap="round" stroke-linejoin="round" stroke-miterlimit="3" d="
			M0.001,287.281l26.29-48.091l25.88,48.091H0.001L0.001,287.281"/>
	</g>
	<g id="shape10-26" transform="translate(179.74,-66.7363)">
		<title>Лист.10</title>
		<path fill="#8DB1E2" d="M0,287.28l26.29-48.09l25.88,48.09H0L0,287.28z"/>
	</g>
	<g id="shape11-28" transform="translate(179.74,-66.7363)">
		<title>Лист.11</title>
		
			<path fill="none" stroke="#283E59" stroke-width="5.4412" stroke-linecap="round" stroke-linejoin="round" stroke-miterlimit="3" d="
			M0,287.28l26.29-48.09l25.88,48.09H0L0,287.28"/>
	</g>
	<g id="shape12-31" transform="translate(-142.569,58.2562) rotate(-61.4)">
		<title>Лист.12</title>
		<desc>А</desc>
		<v:textBlock  v:tabSpace="42.5197" v:margins="rect(0,0,0,0)"></v:textBlock>
		<v:textRect  width="17.38" height="16.9165" cy="278.821" cx="8.68952"></v:textRect>
		<path fill="none" d="M17.38,270.36L0,270.36l0,16.92H17.38L17.38,270.36"/>
		<g enable-background="new    ">
			<path d="M10.094,272.632c0.382,0.607,0.73,1.235,1.043,1.884c0.313,0.648,0.595,1.299,0.846,1.952
				c0.458,1.185,0.827,2.345,1.107,3.479s0.494,2.158,0.643,3.073l-2.953,0c-0.01-0.055-0.019-0.104-0.028-0.147
				c-0.009-0.042-0.019-0.081-0.029-0.118c0.001-0.009,0.001-0.018,0-0.028c-0.009-0.056-0.02-0.121-0.035-0.197
				c-0.014-0.074-0.03-0.167-0.049-0.279c-0.02-0.094-0.032-0.176-0.042-0.245c-0.008-0.07-0.018-0.138-0.027-0.203
				c-0.01-0.019-0.014-0.037-0.014-0.057c0-0.018-0.005-0.037-0.015-0.055c-0.009-0.065-0.02-0.131-0.034-0.196
				c-0.015-0.064-0.032-0.14-0.049-0.223l-2.926,0c0.074-0.374,0.159-0.74,0.252-1.099c0.093-0.359,0.186-0.717,0.28-1.071l1.806,0
				c-0.066-0.261-0.14-0.518-0.224-0.77c-0.084-0.252-0.168-0.494-0.252-0.728c-0.15-0.401-0.292-0.744-0.426-1.029
				c-0.136-0.284-0.222-0.468-0.259-0.553c-0.28,0.598-0.537,1.223-0.77,1.876c-0.233,0.653-0.443,1.306-0.63,1.96
				c-0.159,0.541-0.296,1.078-0.412,1.611c-0.117,0.531-0.217,1.05-0.302,1.554l-2.955-0.001c0.112-0.587,0.246-1.199,0.4-1.833
				c0.154-0.636,0.324-1.275,0.511-1.918c0.363-1.27,0.784-2.494,1.26-3.675c0.476-1.181,0.966-2.167,1.47-2.961L10.094,272.632z"/>
			<v:paragraph  v:horizAlign="1"></v:paragraph>
			<v:tabList></v:tabList>
		</g>
	</g>
	<g id="shape13-35" transform="translate(-137.594,49.1353) rotate(-61.4)">
		<title>Лист.13</title>
		<v:textBlock  v:tabSpace="42.5197" v:margins="rect(0,0,0,0)"></v:textBlock>
		<path fill="none" d="M11.38,270.361l-11.381,0L0,287.28l11.38,0.001L11.38,270.361"/>
	</g>
	<g id="shape14-38" transform="translate(-135.383,44.9894) rotate(-61.4)">
		<title>Лист.14</title>
		<desc>Н</desc>
		<v:textBlock  v:tabSpace="42.5197" v:margins="rect(0,0,0,0)"></v:textBlock>
		<v:textRect  width="18.42" height="16.9165" cy="278.821" cx="9.20826"></v:textRect>
		<path fill="none" d="M18.42,270.361L0,270.36l0,16.92l18.421,0.001L18.42,270.361"/>
		<g enable-background="new    ">
			<path d="M7.503,272.633l0,10.388l-2.954,0l0-10.388L7.503,272.633z M13.86,272.633l0,10.388l-2.954,0l-0.001-5.124l-2.856,0.001
				l0-2.338l2.856-0.001l0.001-2.926L13.86,272.633z"/>
			<v:paragraph  v:horizAlign="1"></v:paragraph>
			<v:tabList></v:tabList>
		</g>
	</g>
	<g id="shape15-42" transform="translate(-130.131,35.0392) rotate(-61.4)">
		<title>Лист.15</title>
		<v:textBlock  v:tabSpace="42.5197" v:margins="rect(0,0,0,0)"></v:textBlock>
		<path fill="none" d="M11.38,270.361l-11.38,0l0.001,16.92l11.379,0L11.38,270.361"/>
	</g>
	<g id="shape16-45" transform="translate(-127.644,31.1697) rotate(-61.4)">
		<title>Лист.16</title>
		<desc>А</desc>
		<v:textBlock  v:tabSpace="42.5197" v:margins="rect(0,0,0,0)"></v:textBlock>
		<v:textRect  width="17.38" height="16.9165" cy="278.821" cx="8.68952"></v:textRect>
		<path fill="none" d="M17.38,270.361l-17.38-0.001l0,16.92l17.381,0L17.38,270.361"/>
		<g enable-background="new    ">
			<path d="M10.093,272.632c0.382,0.607,0.73,1.235,1.043,1.884c0.313,0.648,0.595,1.299,0.846,1.952
				c0.458,1.185,0.827,2.345,1.107,3.479c0.28,1.133,0.494,2.158,0.643,3.073l-2.953,0c-0.01-0.055-0.019-0.104-0.028-0.147
				c-0.009-0.042-0.019-0.081-0.029-0.118c0.001-0.009,0.001-0.018,0-0.028c-0.009-0.056-0.02-0.121-0.035-0.197
				c-0.014-0.074-0.03-0.167-0.049-0.279c-0.02-0.094-0.032-0.176-0.042-0.245c-0.008-0.07-0.018-0.138-0.027-0.203
				c-0.01-0.019-0.014-0.037-0.014-0.057c0-0.018-0.005-0.037-0.015-0.055c-0.009-0.065-0.02-0.131-0.034-0.196
				c-0.015-0.064-0.032-0.14-0.049-0.223l-2.926,0c0.074-0.374,0.159-0.74,0.252-1.099c0.093-0.359,0.186-0.717,0.28-1.071l1.806,0
				c-0.066-0.261-0.14-0.518-0.224-0.77c-0.084-0.252-0.168-0.494-0.252-0.728c-0.15-0.401-0.292-0.744-0.426-1.029
				c-0.136-0.284-0.222-0.468-0.259-0.553c-0.28,0.598-0.537,1.223-0.77,1.876c-0.233,0.653-0.443,1.306-0.63,1.96
				c-0.159,0.541-0.296,1.078-0.412,1.611c-0.117,0.531-0.217,1.05-0.302,1.554l-2.955-0.001c0.112-0.587,0.246-1.199,0.4-1.833
				c0.154-0.636,0.324-1.275,0.511-1.918c0.363-1.27,0.784-2.494,1.26-3.675c0.476-1.181,0.966-2.167,1.47-2.961L10.093,272.632z"/>
			<v:paragraph  v:horizAlign="1"></v:paragraph>
			<v:tabList></v:tabList>
		</g>
	</g>
	<g id="shape17-49" transform="translate(-122.945,22.0488) rotate(-61.4)">
		<title>Лист.17</title>
		<v:textBlock  v:tabSpace="42.5197" v:margins="rect(0,0,0,0)"></v:textBlock>
		<path fill="none" d="M11.38,270.36l-11.379,0l0,16.92l11.379,0L11.38,270.36"/>
	</g>
	<g id="shape18-52" transform="translate(-120.458,17.9029) rotate(-61.4)">
		<title>Лист.18</title>
		<desc>Л</desc>
		<v:textBlock  v:tabSpace="42.5197" v:margins="rect(0,0,0,0)"></v:textBlock>
		<v:textRect  width="18.06" height="16.9165" cy="278.821" cx="9.02993"></v:textRect>
		<path fill="none" d="M18.06,270.36L0,270.361L0,287.281l18.06-0.001L18.06,270.36"/>
		<g enable-background="new    ">
			<path d="M10.228,274.956c-0.159,0-0.362,0.014-0.609,0.043c-0.248,0.027-0.502,0.102-0.764,0.223
				c-0.42,0.205-0.805,0.595-1.155,1.169c-0.35,0.574-0.525,1.487-0.525,2.738c0,0.279,0.007,0.607,0.021,0.979
				c0.013,0.373,0.035,0.752,0.063,1.134c0.017,0.318,0.041,0.63,0.069,0.939c0.028,0.307,0.056,0.588,0.084,0.84l-2.982,0
				c-0.13-1.045-0.212-1.878-0.244-2.498c-0.033-0.621-0.049-1.09-0.049-1.408c0-2.033,0.336-3.509,1.007-4.423
				c0.673-0.914,1.41-1.512,2.212-1.792c0.29-0.102,0.579-0.172,0.868-0.21c0.289-0.036,0.56-0.055,0.812-0.055l4.495,0l0,10.388
				l-2.954,0l0.001-8.063L10.228,274.956z"/>
			<v:paragraph  v:horizAlign="1"></v:paragraph>
			<v:tabList></v:tabList>
		</g>
	</g>
	<g id="shape19-56" transform="translate(-115.483,8.22917) rotate(-61.4)">
		<title>Лист.19</title>
		<v:textBlock  v:tabSpace="42.5197" v:margins="rect(0,0,0,0)"></v:textBlock>
		<path fill="none" d="M11.38,270.36l-11.38,0L0,287.281l11.381-0.001L11.38,270.36"/>
	</g>
	<g id="shape20-59" transform="translate(-112.995,4.08329) rotate(-61.4)">
		<title>Лист.20</title>
		<desc>И</desc>
		<v:textBlock  v:tabSpace="42.5197" v:margins="rect(0,0,0,0)"></v:textBlock>
		<v:textRect  width="18.44" height="16.9165" cy="278.821" cx="9.21636"></v:textRect>
		<path fill="none" d="M18.43,270.361H0l0,16.92l18.43,0L18.43,270.361"/>
		<g enable-background="new    ">
			<path d="M7.503,272.632l0.001,2.771c0.102-0.121,0.215-0.247,0.336-0.378s0.247-0.261,0.377-0.391
				c0.216-0.205,0.44-0.411,0.673-0.616c0.233-0.206,0.471-0.397,0.714-0.575c0.233-0.167,0.46-0.321,0.679-0.461
				c0.22-0.14,0.431-0.257,0.637-0.349l2.954,0l0,10.388l-2.954,0l0-7.434c-0.195,0.121-0.405,0.268-0.63,0.44
				c-0.224,0.173-0.448,0.358-0.672,0.553c-0.234,0.205-0.463,0.42-0.686,0.644c-0.225,0.224-0.439,0.448-0.644,0.672
				c-0.149,0.178-0.292,0.353-0.427,0.525c-0.135,0.173-0.255,0.342-0.357,0.511l0,4.088l-2.954,0l0-10.388L7.503,272.632z"/>
			<v:paragraph  v:horizAlign="1"></v:paragraph>
			<v:tabList></v:tabList>
		</g>
	</g>
	<g id="shape21-63" transform="translate(-107.744,-5.59045) rotate(-61.4)">
		<title>Лист.21</title>
		<v:textBlock  v:tabSpace="42.5197" v:margins="rect(0,0,0,0)"></v:textBlock>
		<path fill="none" d="M11.38,270.36l-11.38,0l0,16.92l11.38,0L11.38,270.36"/>
	</g>
	<g id="shape22-66" transform="translate(-105.533,-9.73633) rotate(-61.4)">
		<title>Лист.22</title>
		<desc>З</desc>
		<v:textBlock  v:tabSpace="42.5197" v:margins="rect(0,0,0,0)"></v:textBlock>
		<v:textRect  width="15.5" height="16.9165" cy="278.821" cx="7.74934"></v:textRect>
		<path fill="none" d="M15.5,270.361l-15.5,0l0,16.92l15.5,0L15.5,270.361"/>
		<g enable-background="new    ">
			<path d="M3.986,272.632c0.634-0.112,1.185-0.182,1.652-0.21c0.467-0.028,0.784-0.043,0.952-0.042
				c1.372,0.001,2.368,0.195,2.988,0.588c0.621,0.392,1.03,0.827,1.226,1.303c0.084,0.186,0.14,0.373,0.168,0.559
				c0.028,0.187,0.042,0.36,0.042,0.519c0,0.495-0.11,0.895-0.33,1.204c-0.219,0.307-0.459,0.541-0.721,0.7
				c-0.066,0.047-0.133,0.086-0.203,0.118c-0.07,0.034-0.138,0.063-0.203,0.092c0.112,0.037,0.243,0.091,0.392,0.161
				s0.303,0.156,0.462,0.259c0.28,0.195,0.537,0.464,0.77,0.805c0.232,0.34,0.35,0.783,0.35,1.323c0,0.85-0.383,1.601-1.148,2.253
				c-0.765,0.654-2.025,0.98-3.78,0.98c-0.102,0-0.2,0-0.294,0c-0.093,0.001-0.192-0.005-0.294-0.013
				c-0.327-0.01-0.66-0.031-1.001-0.063c-0.341-0.033-0.712-0.082-1.113-0.148l0-2.351c0.476,0.074,0.861,0.13,1.154,0.168
				c0.295,0.037,0.572,0.06,0.833,0.07c0.065,0.009,0.131,0.014,0.196,0.014s0.135,0,0.21,0c0.121,0,0.252-0.003,0.392-0.008
				c0.139-0.004,0.28-0.016,0.42-0.034c0.354-0.047,0.679-0.161,0.973-0.344c0.294-0.181,0.441-0.492,0.441-0.931
				c0-0.307-0.103-0.533-0.308-0.678c-0.205-0.145-0.434-0.24-0.686-0.288c-0.075-0.018-0.152-0.03-0.231-0.035
				c-0.08-0.005-0.157-0.007-0.231-0.006l-2.31,0l0.001-2.169l2.169,0c0.318,0,0.551-0.049,0.7-0.147
				c0.149-0.098,0.252-0.203,0.308-0.315c0.037-0.076,0.06-0.144,0.07-0.21c0.009-0.066,0.014-0.122,0.014-0.169
				c0-0.057-0.007-0.117-0.02-0.182c-0.014-0.065-0.04-0.131-0.077-0.195c-0.094-0.16-0.264-0.305-0.512-0.442
				c-0.247-0.135-0.623-0.203-1.127-0.203c-0.26,0-0.529,0.014-0.805,0.042c-0.276,0.029-0.553,0.066-0.833,0.113
				c-0.103,0.027-0.21,0.056-0.322,0.084c-0.112,0.026-0.224,0.055-0.336,0.084L3.986,272.632z"/>
			<v:paragraph  v:horizAlign="1"></v:paragraph>
			<v:tabList></v:tabList>
		</g>
	</g>
	<g id="shape23-70" transform="translate(431.017,-17.4753) rotate(61.4)">
		<title>Лист.23</title>
		<desc>С</desc>
		<v:textBlock  v:tabSpace="42.5197" v:margins="rect(0,0,0,0)"></v:textBlock>
		<v:textRect  width="15.49" height="16.9165" cy="278.821" cx="7.74119"></v:textRect>
		<path fill="none" d="M15.48,270.36l-15.48,0l0,16.92l15.48,0L15.48,270.36"/>
		<g enable-background="new    ">
			<path d="M11.673,274.886c-0.187-0.056-0.399-0.105-0.637-0.147c-0.238-0.042-0.492-0.063-0.763-0.063
				c-1.045,0-1.85,0.287-2.414,0.86c-0.565,0.574-0.847,1.328-0.847,2.261c-0.001,0.896,0.182,1.565,0.545,2.009
				c0.364,0.443,0.765,0.754,1.204,0.931c0.234,0.083,0.462,0.142,0.687,0.174c0.223,0.033,0.419,0.049,0.588,0.05
				c0.12,0,0.242-0.005,0.364-0.015c0.12-0.009,0.242-0.023,0.363-0.042c0.159-0.019,0.315-0.046,0.468-0.084
				c0.155-0.037,0.301-0.079,0.441-0.126l0,2.325c-0.299,0.065-0.633,0.119-1.001,0.161c-0.369,0.042-0.792,0.063-1.268,0.063
				c-1.885,0-3.236-0.506-4.053-1.519c-0.817-1.013-1.271-2.13-1.365-3.354c-0.009-0.093-0.016-0.188-0.021-0.286
				c-0.005-0.099-0.008-0.194-0.007-0.287c0-1.586,0.504-2.883,1.511-3.892c1.008-1.008,2.422-1.511,4.242-1.512
				c0.374,0,0.72,0.021,1.042,0.063c0.323,0.042,0.628,0.1,0.918,0.175L11.673,274.886z"/>
			<v:paragraph  v:horizAlign="1"></v:paragraph>
			<v:tabList></v:tabList>
		</g>
	</g>
	<g id="shape24-74" transform="translate(435.163,-10.2891) rotate(61.4)">
		<title>Лист.24</title>
		<v:textBlock  v:tabSpace="42.5197" v:margins="rect(0,0,0,0)"></v:textBlock>
		<path fill="none" d="M11.38,270.36l-11.38,0l0,16.92l11.38,0L11.38,270.36"/>
	</g>
	<g id="shape25-77" transform="translate(437.374,-5.86684) rotate(61.4)">
		<title>Лист.25</title>
		<desc>И</desc>
		<v:textBlock  v:tabSpace="42.5197" v:margins="rect(0,0,0,0)"></v:textBlock>
		<v:textRect  width="18.44" height="16.9165" cy="278.821" cx="9.21636"></v:textRect>
		<path fill="none" d="M18.43,270.359H0l0,16.92l18.429,0L18.43,270.359"/>
		<g enable-background="new    ">
			<path d="M7.505,272.632l-0.001,2.771c0.103-0.122,0.215-0.248,0.336-0.378c0.121-0.131,0.247-0.26,0.378-0.391
				c0.215-0.205,0.439-0.411,0.672-0.617c0.233-0.205,0.472-0.396,0.714-0.574c0.233-0.169,0.459-0.322,0.678-0.462
				c0.22-0.139,0.432-0.256,0.638-0.35l2.954,0l0,10.388l-2.954,0l0-7.434c-0.196,0.121-0.405,0.267-0.63,0.441
				c-0.224,0.173-0.448,0.357-0.672,0.553c-0.234,0.206-0.463,0.421-0.687,0.644c-0.223,0.224-0.438,0.449-0.644,0.672
				c-0.149,0.178-0.292,0.352-0.428,0.525c-0.135,0.172-0.253,0.342-0.356,0.511l0,4.088l-2.954,0l0-10.388L7.505,272.632z"/>
			<v:paragraph  v:horizAlign="1"></v:paragraph>
			<v:tabList></v:tabList>
		</g>
	</g>
	<g id="shape26-81" transform="translate(442.626,3.5305) rotate(61.4)">
		<title>Лист.26</title>
		<v:textBlock  v:tabSpace="42.5197" v:margins="rect(0,0,0,0)"></v:textBlock>
		<path fill="none" d="M11.38,270.36l-11.38,0l0,16.92l11.38,0L11.38,270.36"/>
	</g>
	<g id="shape27-84" transform="translate(445.113,8.22917) rotate(61.4)">
		<title>Лист.27</title>
		<desc>Н</desc>
		<v:textBlock  v:tabSpace="42.5197" v:margins="rect(0,0,0,0)"></v:textBlock>
		<v:textRect  width="18.42" height="16.9165" cy="278.821" cx="9.20826"></v:textRect>
		<path fill="none" d="M18.42,270.359l-18.42,0l0.001,16.92l18.419,0L18.42,270.359"/>
		<g enable-background="new    ">
			<path d="M7.504,272.633l0,10.388l-2.954,0l0-10.388L7.504,272.633z M13.86,272.632l0,10.388l-2.954,0l-0.001-5.124l-2.856-0.001
				l0-2.338l2.856,0.001l0-2.926L13.86,272.632z"/>
			<v:paragraph  v:horizAlign="1"></v:paragraph>
			<v:tabList></v:tabList>
		</g>
	</g>
	<g id="shape28-88" transform="translate(450.365,17.6265) rotate(61.4)">
		<title>Лист.28</title>
		<v:textBlock  v:tabSpace="42.5197" v:margins="rect(0,0,0,0)"></v:textBlock>
		<path fill="none" d="M11.381,270.36L0,270.359l0,16.92l11.381,0.001L11.381,270.36"/>
	</g>
	<g id="shape29-91" transform="translate(452.576,22.3252) rotate(61.4)">
		<title>Лист.29</title>
		<desc>Т</desc>
		<v:textBlock  v:tabSpace="42.5197" v:margins="rect(0,0,0,0)"></v:textBlock>
		<v:textRect  width="14.86" height="16.9165" cy="278.821" cx="7.42512"></v:textRect>
		<path fill="none" d="M14.85,270.359l-14.849,0l0,16.92l14.849,0L14.85,270.359"/>
		<g enable-background="new    ">
			<path d="M11.38,272.632l0.001,2.324l-2.478,0l0,8.064l-2.954,0l0-8.064l-2.478,0l0-2.324L11.38,272.632z"/>
			<v:paragraph  v:horizAlign="1"></v:paragraph>
			<v:tabList></v:tabList>
		</g>
	</g>
	<g id="shape30-95" transform="translate(456.445,28.9586) rotate(61.4)">
		<title>Лист.30</title>
		<v:textBlock  v:tabSpace="42.5197" v:margins="rect(0,0,0,0)"></v:textBlock>
		<path fill="none" d="M11.381,270.36L0,270.359l0,16.92l11.381,0.001L11.381,270.36"/>
	</g>
	<g id="shape31-98" transform="translate(458.657,33.3809) rotate(61.4)">
		<title>Лист.31</title>
		<desc>Е</desc>
		<v:textBlock  v:tabSpace="42.5197" v:margins="rect(0,0,0,0)"></v:textBlock>
		<v:textRect  width="15.23" height="16.9165" cy="278.821" cx="7.61155"></v:textRect>
		<path fill="none" d="M15.22,270.36L0,270.359l0,16.92l15.22,0.001L15.22,270.36"/>
		<g enable-background="new    ">
			<path d="M11.102,274.956l-3.807,0l0,5.739l4.074,0l0.001,2.324l-7.029,0.001l0-10.388l6.762-0.001L11.102,274.956z
				 M11.733,278.134l-3.893,0l0-2.324l3.893,0L11.733,278.134z"/>
			<v:paragraph  v:horizAlign="1"></v:paragraph>
			<v:tabList></v:tabList>
		</g>
	</g>
	<g id="shape32-102" transform="translate(462.802,40.2907) rotate(61.4)">
		<title>Лист.32</title>
		<v:textBlock  v:tabSpace="42.5197" v:margins="rect(0,0,0,0)"></v:textBlock>
		<path fill="none" d="M11.38,270.36L0,270.359l0,16.92l11.381,0.001L11.38,270.36"/>
	</g>
	<g id="shape33-105" transform="translate(465.014,44.9894) rotate(61.4)">
		<title>Лист.33</title>
		<desc>З</desc>
		<v:textBlock  v:tabSpace="42.5197" v:margins="rect(0,0,0,0)"></v:textBlock>
		<v:textRect  width="15.5" height="16.9165" cy="278.821" cx="7.74934"></v:textRect>
		<path fill="none" d="M15.5,270.359l-15.5,0l0,16.92l15.5,0L15.5,270.359"/>
		<g enable-background="new    ">
			<path d="M3.987,272.632c0.634-0.113,1.185-0.183,1.651-0.21c0.467-0.029,0.784-0.043,0.952-0.043
				c1.372,0.001,2.368,0.196,2.989,0.589c0.621,0.391,1.029,0.826,1.225,1.302c0.084,0.186,0.141,0.373,0.168,0.559
				c0.028,0.188,0.042,0.361,0.042,0.519c0,0.495-0.11,0.895-0.329,1.205c-0.22,0.307-0.46,0.541-0.721,0.7
				c-0.065,0.047-0.133,0.085-0.202,0.118c-0.07,0.033-0.139,0.063-0.203,0.092c0.112,0.038,0.241,0.092,0.392,0.162
				c0.149,0.069,0.302,0.156,0.461,0.258c0.28,0.196,0.537,0.464,0.77,0.805c0.233,0.342,0.35,0.782,0.349,1.324
				c0.001,0.849-0.382,1.6-1.147,2.253c-0.766,0.654-2.026,0.98-3.78,0.98c-0.104,0-0.201,0-0.295,0
				c-0.093,0.001-0.191-0.004-0.294-0.014c-0.326-0.01-0.66-0.03-1.001-0.062c-0.341-0.034-0.712-0.082-1.113-0.148l0-2.352
				c0.476,0.075,0.861,0.131,1.155,0.168c0.294,0.038,0.572,0.061,0.833,0.069c0.066,0.01,0.131,0.015,0.197,0.015
				c0.065,0,0.135,0,0.209,0c0.121,0,0.253-0.002,0.392-0.007c0.14-0.004,0.28-0.015,0.42-0.034
				c0.355-0.048,0.679-0.162,0.973-0.344c0.294-0.182,0.441-0.493,0.441-0.931c0.001-0.308-0.103-0.534-0.308-0.68
				c-0.205-0.144-0.433-0.24-0.686-0.287c-0.075-0.018-0.152-0.029-0.231-0.035s-0.157-0.006-0.231-0.007l-2.31,0.001l0-2.171
				l2.17,0.001c0.317-0.001,0.551-0.049,0.7-0.148c0.149-0.098,0.252-0.203,0.307-0.314c0.038-0.075,0.061-0.145,0.071-0.21
				c0.009-0.065,0.013-0.121,0.013-0.168c0.001-0.056-0.006-0.118-0.021-0.183c-0.014-0.064-0.04-0.129-0.077-0.195
				c-0.094-0.159-0.264-0.305-0.51-0.441c-0.247-0.136-0.623-0.203-1.127-0.203c-0.261,0-0.53,0.013-0.806,0.041
				c-0.275,0.028-0.552,0.066-0.832,0.112c-0.103,0.027-0.21,0.055-0.322,0.083c-0.112,0.028-0.224,0.056-0.336,0.085L3.987,272.632
				z"/>
			<v:paragraph  v:horizAlign="1"></v:paragraph>
			<v:tabList></v:tabList>
		</g>
	</g>
	<g id="shape34-109" transform="translate(99.9452,-40.2709)">
		<title>Лист.34</title>
		<desc>Концепт</desc>
		<v:textBlock  v:tabSpace="42.5197" v:margins="rect(0,0,0,0)"></v:textBlock>
		<v:textRect  width="131.23" height="27.53" cy="273.514" cx="65.6118"></v:textRect>
		<path fill="none" d="M131.22,259.75H0v27.53h131.22V259.75"/>
		<g enable-background="new    ">
			<path d="M28.878,265.554v2.7c0.204-0.06,0.417-0.144,0.639-0.252c0.222-0.107,0.447-0.228,0.675-0.359
				c0.444-0.252,0.87-0.559,1.278-0.918c0.408-0.36,0.744-0.75,1.008-1.171h4.554c-0.132,0.265-0.294,0.544-0.486,0.838
				s-0.408,0.591-0.648,0.891c-0.432,0.528-0.924,1.038-1.476,1.53s-1.116,0.894-1.692,1.206c0.768,0.804,1.452,1.683,2.052,2.637
				c0.6,0.954,1.109,1.923,1.53,2.907c0.24,0.563,0.447,1.128,0.621,1.691c0.174,0.564,0.315,1.116,0.423,1.656h-3.906
				c-0.205-1.14-0.555-2.193-1.053-3.159s-1.029-1.814-1.593-2.547c-0.216-0.3-0.432-0.576-0.648-0.828
				c-0.216-0.252-0.426-0.479-0.63-0.684c-0.096,0.048-0.198,0.096-0.306,0.144c-0.108,0.048-0.222,0.09-0.342,0.126v6.948H25.08
				v-13.356H28.878z"/>
			<path d="M43.422,279.144c-1.596-0.013-2.91-0.483-3.942-1.413c-1.032-0.93-1.548-2.266-1.548-4.005
				c0-1.74,0.516-3.078,1.548-4.015c1.032-0.936,2.346-1.403,3.942-1.403c1.596,0,2.91,0.468,3.942,1.403
				c1.032,0.937,1.548,2.274,1.548,4.015c0,1.739-0.516,3.075-1.548,4.005s-2.346,1.395-3.942,1.395V279.144z M43.611,276.543
				c0.066-0.006,0.135-0.015,0.207-0.026c0.396-0.072,0.759-0.31,1.089-0.712c0.33-0.401,0.495-1.095,0.495-2.078
				c0-0.984-0.165-1.677-0.495-2.079s-0.693-0.64-1.089-0.711c-0.072-0.012-0.141-0.021-0.207-0.027s-0.129-0.009-0.189-0.009
				c-0.108,0-0.237,0.012-0.387,0.036c-0.15,0.023-0.303,0.078-0.459,0.162c-0.288,0.132-0.549,0.396-0.783,0.792
				c-0.234,0.396-0.351,1.008-0.351,1.836c0,0.827,0.117,1.439,0.351,1.836c0.234,0.396,0.495,0.66,0.783,0.792
				c0.156,0.084,0.309,0.138,0.459,0.162c0.15,0.023,0.279,0.035,0.387,0.035C43.482,276.552,43.545,276.55,43.611,276.543z"/>
			<path d="M53.97,278.91h-3.402v-10.368h3.402V278.91z M60.774,278.91h-3.402v-4.392h-2.7v-2.593h2.7v-3.384h3.402V278.91z"/>
			<path d="M66.696,268.542c-0.035,0.156-0.068,0.313-0.099,0.468c-0.03,0.156-0.063,0.313-0.099,0.469
				c-0.084,0.359-0.162,0.723-0.234,1.089s-0.133,0.735-0.18,1.106c-0.049,0.313-0.084,0.618-0.108,0.918
				c-0.024,0.301-0.036,0.601-0.036,0.9c0,0.972,0.195,1.638,0.585,1.998s0.813,0.582,1.269,0.666
				c0.192,0.024,0.379,0.039,0.559,0.045s0.342,0.009,0.486,0.009c0.023,0,0.045,0,0.063,0s0.033,0,0.045,0h4.536v2.7h-5.418
				c-0.013,0-0.024,0-0.036,0c-0.313,0-0.678-0.009-1.098-0.027c-0.42-0.018-0.853-0.087-1.297-0.207
				c-0.803-0.216-1.538-0.678-2.204-1.386s-0.999-1.89-0.999-3.546c0-0.695,0.057-1.374,0.171-2.034
				c0.114-0.659,0.237-1.266,0.369-1.817c0.06-0.252,0.12-0.492,0.18-0.721c0.06-0.228,0.114-0.438,0.162-0.63H66.696z
				 M72.293,275.616h-3.401v-7.074h3.401V275.616z"/>
			<path d="M84.047,278.784c-0.516,0.108-1.043,0.191-1.584,0.252c-0.539,0.06-1.128,0.09-1.764,0.09
				c-2.027,0-3.605-0.498-4.734-1.494c-1.127-0.995-1.691-2.321-1.691-3.978c0-1.788,0.555-3.126,1.665-4.014
				c1.109-0.889,2.463-1.332,4.059-1.332c0.276,0,0.579,0.018,0.909,0.054s0.663,0.102,0.999,0.198
				c0.828,0.24,1.587,0.753,2.276,1.539c0.69,0.785,1.035,2.078,1.035,3.879c0,0.048,0,0.099,0,0.152c0,0.055,0,0.105,0,0.153
				c0,0.061-0.002,0.114-0.008,0.162c-0.007,0.048-0.01,0.102-0.01,0.162h-6.408c-0.012-0.024-0.029-0.051-0.054-0.081
				s-0.042-0.063-0.054-0.1c-0.061-0.107-0.111-0.236-0.153-0.387c-0.042-0.149-0.063-0.32-0.063-0.513
				c0-0.108,0.006-0.24,0.019-0.396c0.012-0.155,0.042-0.329,0.09-0.521h3.366c-0.024-0.54-0.153-0.93-0.387-1.17
				c-0.234-0.24-0.49-0.396-0.766-0.469c-0.132-0.023-0.258-0.041-0.378-0.054c-0.12-0.012-0.233-0.018-0.342-0.018
				c-0.816,0-1.404,0.246-1.765,0.737c-0.359,0.492-0.539,1.11-0.539,1.854c0,0.061,0,0.12,0,0.18c0,0.061,0.006,0.12,0.018,0.181
				c0.061,0.672,0.352,1.29,0.873,1.854c0.521,0.564,1.473,0.846,2.854,0.846c0.443,0,0.854-0.032,1.232-0.099
				c0.378-0.065,0.747-0.165,1.107-0.297c0.035-0.012,0.068-0.024,0.099-0.036s0.063-0.023,0.099-0.036V278.784z"/>
			<path d="M96.756,278.91h-3.402v-7.776h-3.276v7.776h-3.401v-10.368h10.08V278.91z"/>
			<path d="M107.213,271.242h-2.987v7.668h-3.402v-7.668h-2.987v-2.7h9.377V271.242z"/>
			<v:paragraph  v:horizAlign="1"></v:paragraph>
			<v:tabList></v:tabList>
		</g>
	</g>
	<g id="shape35-113" transform="translate(123.84,-114.414)">
		<title>Лист.35</title>
		<path fill="#8DB1E2" d="M0,287.28l41.46-75.87l40.841,75.87H0L0,287.28z"/>
	</g>
	<g id="shape36-115" transform="translate(123.84,-114.414)">
		<title>Лист.36</title>
		
			<path fill="none" stroke="#283E59" stroke-width="5.4412" stroke-linecap="round" stroke-linejoin="round" stroke-miterlimit="3" d="
			M0,287.28l41.46-75.87l40.841,75.87H0L0,287.28"/>
	</g>
	<g id="shape40-118" transform="translate(56.39,5.68434E-014)">
		<title>Лист.40</title>
		<desc>Всегда вместе!</desc>
		<v:textBlock  v:tabSpace="42.5197" v:margins="rect(0,0,0,0)"></v:textBlock>
		<v:textRect  width="220.5" height="27.53" cy="273.514" cx="110.25"></v:textRect>
		<path fill="none" d="M220.501,259.75H0.001v27.529h220.5V259.75"/>
		<g enable-background="new    ">
			<path d="M44.676,265.554c1.26,0,2.199,0.229,2.817,0.685s1.035,0.954,1.251,1.494c0.096,0.228,0.162,0.453,0.198,0.675
				c0.036,0.222,0.054,0.429,0.054,0.621c0,0.684-0.192,1.245-0.576,1.683c-0.384,0.438-0.804,0.766-1.26,0.981
				c-0.012,0-0.021,0.003-0.027,0.009c-0.006,0.006-0.015,0.009-0.027,0.009v0.036c0.996,0.349,1.656,0.837,1.98,1.467
				c0.324,0.63,0.486,1.293,0.486,1.989c0,0.924-0.372,1.773-1.116,2.547c-0.744,0.774-2.004,1.161-3.78,1.161H37.8v-13.356H44.676z
				 M42.3,270.541h1.386c0.072,0,0.147-0.003,0.225-0.009s0.159-0.009,0.243-0.009c0.312-0.036,0.6-0.132,0.864-0.288
				s0.396-0.433,0.396-0.828c0-0.444-0.159-0.729-0.477-0.855s-0.669-0.194-1.053-0.207c-0.048,0-0.096,0-0.144,0
				c-0.048,0-0.096,0-0.144,0h-1.998v7.776h2.088c0.588,0,1.02-0.087,1.296-0.261c0.276-0.174,0.461-0.363,0.558-0.567
				c0.048-0.096,0.081-0.191,0.099-0.288c0.018-0.096,0.027-0.18,0.027-0.252c0-0.443-0.114-0.765-0.342-0.963
				s-0.474-0.327-0.738-0.387c-0.168-0.036-0.331-0.057-0.486-0.063c-0.156-0.006-0.288-0.009-0.396-0.009c-0.012,0-0.021,0-0.027,0
				c-0.006,0-0.015,0-0.027,0H42.3V270.541z"/>
			<path d="M58.122,271.243c-0.036-0.012-0.087-0.033-0.153-0.063c-0.066-0.029-0.147-0.063-0.243-0.099
				c-0.144-0.048-0.309-0.09-0.495-0.126s-0.381-0.054-0.585-0.054c-0.048,0-0.093,0-0.135,0s-0.087,0.006-0.135,0.018
				c-0.54,0.048-1.032,0.276-1.476,0.685c-0.444,0.407-0.666,1.134-0.666,2.178c0,0.804,0.144,1.398,0.432,1.782
				s0.606,0.647,0.954,0.792c0.204,0.084,0.405,0.138,0.603,0.162c0.198,0.023,0.363,0.035,0.495,0.035
				c0.228,0,0.435-0.012,0.621-0.035c0.186-0.024,0.375-0.066,0.567-0.126c0.06-0.024,0.126-0.052,0.198-0.081
				c0.072-0.03,0.144-0.063,0.216-0.1v2.7c-0.144,0.036-0.279,0.065-0.405,0.09s-0.25,0.048-0.369,0.072
				c-0.156,0.023-0.315,0.039-0.477,0.045s-0.339,0.009-0.531,0.009c-2.064,0-3.549-0.537-4.455-1.61
				c-0.906-1.074-1.359-2.319-1.359-3.735c0-0.145,0.002-0.285,0.009-0.423c0.006-0.138,0.021-0.279,0.045-0.423
				c0.132-1.164,0.609-2.227,1.431-3.187c0.822-0.96,2.175-1.439,4.059-1.439c0.36,0,0.666,0.015,0.918,0.045
				c0.252,0.029,0.492,0.075,0.72,0.135c0.036,0,0.072,0.006,0.108,0.018c0.036,0.013,0.072,0.024,0.108,0.036V271.243z"/>
			<path d="M68.922,278.785c-0.516,0.108-1.044,0.191-1.584,0.252c-0.54,0.06-1.128,0.09-1.764,0.09
				c-2.028,0-3.606-0.498-4.734-1.494c-1.128-0.995-1.692-2.321-1.692-3.978c0-1.788,0.555-3.126,1.665-4.014
				c1.109-0.889,2.463-1.332,4.059-1.332c0.276,0,0.579,0.018,0.909,0.054s0.663,0.102,0.999,0.198
				c0.828,0.24,1.587,0.753,2.277,1.539c0.69,0.785,1.035,2.078,1.035,3.879c0,0.048,0,0.099,0,0.152c0,0.055,0,0.105,0,0.153
				c0,0.061-0.003,0.114-0.009,0.162c-0.006,0.048-0.009,0.102-0.009,0.162h-6.408c-0.012-0.024-0.03-0.051-0.054-0.081
				c-0.024-0.03-0.042-0.063-0.054-0.1c-0.06-0.107-0.111-0.236-0.153-0.387c-0.042-0.149-0.063-0.32-0.063-0.513
				c0-0.108,0.006-0.24,0.018-0.396c0.012-0.155,0.042-0.329,0.09-0.521h3.366c-0.024-0.54-0.153-0.93-0.387-1.17
				s-0.489-0.396-0.765-0.469c-0.132-0.023-0.258-0.041-0.378-0.054c-0.12-0.012-0.234-0.018-0.342-0.018
				c-0.816,0-1.404,0.246-1.764,0.737c-0.36,0.492-0.54,1.11-0.54,1.854c0,0.061,0,0.12,0,0.18c0,0.061,0.006,0.12,0.018,0.181
				c0.06,0.672,0.351,1.29,0.873,1.854c0.522,0.564,1.473,0.846,2.853,0.846c0.444,0,0.855-0.032,1.233-0.099
				c0.378-0.065,0.747-0.165,1.107-0.297c0.036-0.012,0.069-0.024,0.099-0.036c0.03-0.012,0.063-0.023,0.099-0.036V278.785z"/>
			<path d="M78.948,271.243h-3.996v7.668H71.55v-10.368h7.398V271.243z"/>
			<path d="M89.568,276.21h1.296v2.7H78.948v-2.7h7.218v-5.076h-0.54c-0.132,0-0.282,0.01-0.45,0.027
				c-0.168,0.018-0.342,0.063-0.522,0.135c-0.336,0.145-0.645,0.421-0.927,0.828c-0.282,0.408-0.423,1.063-0.423,1.962
				c0,0.12,0.009,0.252,0.027,0.396c0.018,0.144,0.039,0.288,0.063,0.432c0,0.048,0.003,0.09,0.009,0.126
				c0.006,0.036,0.015,0.078,0.027,0.126c0.012,0.072,0.024,0.147,0.036,0.226c0.012,0.078,0.024,0.152,0.036,0.225h-3.366
				c-0.084-0.384-0.144-0.762-0.18-1.134c-0.036-0.372-0.054-0.744-0.054-1.116c0-1.5,0.285-2.583,0.855-3.249
				c0.57-0.666,1.203-1.107,1.899-1.323c0.336-0.107,0.669-0.177,0.999-0.207c0.33-0.029,0.621-0.045,0.873-0.045h5.04V276.21z"/>
			<path d="M92.934,268.542c0.612-0.072,1.152-0.126,1.62-0.162c0.468-0.036,0.918-0.054,1.35-0.054c0.036,0,0.075,0,0.117,0
				s0.081,0,0.117,0c0.312,0,0.669,0.018,1.071,0.054s0.807,0.114,1.215,0.233c0.828,0.229,1.584,0.684,2.268,1.366
				c0.684,0.683,1.026,1.772,1.026,3.271v5.66h-5.85c-0.204,0-0.486-0.012-0.846-0.036c-0.36-0.023-0.732-0.09-1.116-0.198
				c-0.564-0.168-1.08-0.471-1.548-0.908c-0.468-0.438-0.702-1.119-0.702-2.043c0-0.084,0.002-0.168,0.009-0.253
				c0.006-0.083,0.015-0.173,0.027-0.27c0.108-0.708,0.474-1.361,1.098-1.962c0.624-0.6,1.656-0.9,3.096-0.9h1.404
				c0.168,0.288,0.267,0.57,0.297,0.847c0.03,0.275,0.045,0.54,0.045,0.792c0,0.023,0,0.045,0,0.063c0,0.019,0,0.039,0,0.063v0.414
				h-0.99c-0.084,0-0.171,0.003-0.261,0.009c-0.09,0.006-0.189,0.015-0.297,0.026c-0.228,0.036-0.438,0.117-0.63,0.243
				s-0.288,0.346-0.288,0.657c0,0.264,0.099,0.475,0.297,0.63c0.198,0.156,0.465,0.234,0.801,0.234h2.052v-2.395v-0.018
				c0-0.156-0.003-0.327-0.009-0.513c-0.006-0.187-0.027-0.375-0.063-0.567c-0.084-0.479-0.318-0.921-0.702-1.323
				c-0.384-0.401-1.098-0.603-2.142-0.603c-0.156,0-0.309,0.003-0.459,0.009s-0.291,0.016-0.423,0.027
				c-0.24,0.023-0.486,0.057-0.738,0.099s-0.534,0.105-0.846,0.189V268.542z"/>
			<path d="M116.999,268.542c1.02,0,1.752,0.213,2.196,0.64c0.444,0.426,0.72,0.896,0.828,1.412
				c0.024,0.108,0.042,0.217,0.054,0.324c0.012,0.108,0.018,0.216,0.018,0.324c0,0.66-0.17,1.158-0.512,1.494
				c-0.343,0.336-0.711,0.57-1.107,0.702c-0.061,0.012-0.114,0.023-0.162,0.036c-0.049,0.012-0.096,0.023-0.145,0.035v0.036
				c0.096,0.024,0.195,0.052,0.297,0.081c0.103,0.03,0.207,0.069,0.315,0.117c0.372,0.18,0.714,0.465,1.026,0.855
				c0.312,0.39,0.468,0.933,0.468,1.629c0,0.72-0.181,1.263-0.54,1.629s-0.756,0.627-1.188,0.783
				c-0.373,0.132-0.718,0.21-1.035,0.233c-0.318,0.024-0.531,0.036-0.639,0.036h-6.75v-10.368H116.999z M114.227,272.539h1.332
				c0.06,0,0.129-0.003,0.207-0.009s0.158-0.021,0.242-0.045c0.145-0.036,0.276-0.108,0.396-0.216c0.12-0.108,0.18-0.282,0.18-0.522
				c0-0.023,0-0.045,0-0.063c0-0.019-0.006-0.039-0.018-0.063c-0.023-0.168-0.111-0.324-0.261-0.468
				c-0.15-0.145-0.399-0.216-0.747-0.216h-2.034v5.58h2.069c0.349,0,0.631-0.081,0.847-0.243s0.324-0.405,0.324-0.729
				c0-0.264-0.063-0.465-0.188-0.603c-0.127-0.138-0.262-0.237-0.406-0.297c-0.132-0.061-0.254-0.093-0.369-0.1
				c-0.113-0.006-0.183-0.009-0.207-0.009h-1.367V272.539z"/>
			<path d="M121.931,278.911v-10.368h3.402c0.516,0.42,1.002,0.918,1.458,1.494s0.864,1.17,1.224,1.782
				c0.204,0.336,0.385,0.669,0.541,0.999c0.155,0.33,0.293,0.645,0.414,0.944h0.035c0.204-0.527,0.424-1.014,0.657-1.458
				c0.233-0.443,0.478-0.852,0.729-1.224c0.504-0.744,0.975-1.329,1.412-1.755c0.438-0.426,0.717-0.687,0.838-0.783h3.401v10.368
				h-3.401v-5.742c-0.373,0.324-0.715,0.738-1.026,1.242c-0.313,0.504-0.589,1.026-0.828,1.566c-0.132,0.312-0.249,0.62-0.351,0.927
				c-0.103,0.306-0.189,0.591-0.262,0.854H127.8c-0.061-0.239-0.136-0.495-0.226-0.765c-0.091-0.27-0.188-0.537-0.298-0.801
				c-0.252-0.601-0.545-1.173-0.881-1.719s-0.69-0.981-1.063-1.306v5.742H121.931z"/>
			<path d="M147.474,278.785c-0.517,0.108-1.045,0.191-1.584,0.252c-0.541,0.06-1.129,0.09-1.765,0.09
				c-2.028,0-3.606-0.498-4.733-1.494c-1.129-0.995-1.692-2.321-1.692-3.978c0-1.788,0.555-3.126,1.665-4.014
				c1.109-0.889,2.463-1.332,4.059-1.332c0.275,0,0.579,0.018,0.909,0.054s0.663,0.102,0.999,0.198
				c0.828,0.24,1.587,0.753,2.277,1.539c0.689,0.785,1.035,2.078,1.035,3.879c0,0.048,0,0.099,0,0.152c0,0.055,0,0.105,0,0.153
				c0,0.061-0.004,0.114-0.01,0.162s-0.009,0.102-0.009,0.162h-6.407c-0.013-0.024-0.031-0.051-0.055-0.081
				c-0.024-0.03-0.042-0.063-0.055-0.1c-0.06-0.107-0.11-0.236-0.152-0.387c-0.042-0.149-0.063-0.32-0.063-0.513
				c0-0.108,0.006-0.24,0.018-0.396c0.012-0.155,0.042-0.329,0.09-0.521h3.366c-0.024-0.54-0.153-0.93-0.388-1.17
				c-0.233-0.24-0.488-0.396-0.765-0.469c-0.132-0.023-0.258-0.041-0.378-0.054c-0.12-0.012-0.234-0.018-0.342-0.018
				c-0.816,0-1.404,0.246-1.764,0.737c-0.36,0.492-0.541,1.11-0.541,1.854c0,0.061,0,0.12,0,0.18c0,0.061,0.006,0.12,0.019,0.181
				c0.06,0.672,0.351,1.29,0.873,1.854c0.522,0.564,1.474,0.846,2.853,0.846c0.444,0,0.855-0.032,1.233-0.099
				c0.378-0.065,0.747-0.165,1.106-0.297c0.037-0.012,0.069-0.024,0.1-0.036c0.029-0.012,0.063-0.023,0.1-0.036V278.785z"/>
			<path d="M156.995,271.243c-0.036-0.012-0.088-0.033-0.153-0.063c-0.065-0.029-0.147-0.063-0.243-0.099
				c-0.144-0.048-0.309-0.09-0.494-0.126c-0.187-0.036-0.381-0.054-0.586-0.054c-0.048,0-0.093,0-0.135,0s-0.087,0.006-0.135,0.018
				c-0.54,0.048-1.032,0.276-1.477,0.685c-0.443,0.407-0.666,1.134-0.666,2.178c0,0.804,0.145,1.398,0.433,1.782
				s0.606,0.647,0.954,0.792c0.203,0.084,0.404,0.138,0.604,0.162c0.197,0.023,0.362,0.035,0.494,0.035
				c0.229,0,0.436-0.012,0.621-0.035c0.186-0.024,0.375-0.066,0.566-0.126c0.061-0.024,0.127-0.052,0.199-0.081
				c0.071-0.03,0.144-0.063,0.215-0.1v2.7c-0.144,0.036-0.278,0.065-0.404,0.09s-0.25,0.048-0.369,0.072
				c-0.156,0.023-0.314,0.039-0.477,0.045s-0.34,0.009-0.531,0.009c-2.064,0-3.549-0.537-4.455-1.61
				c-0.906-1.074-1.359-2.319-1.359-3.735c0-0.145,0.003-0.285,0.01-0.423c0.006-0.138,0.021-0.279,0.045-0.423
				c0.131-1.164,0.608-2.227,1.431-3.187c0.821-0.96,2.175-1.439,4.06-1.439c0.359,0,0.666,0.015,0.918,0.045
				c0.252,0.029,0.491,0.075,0.719,0.135c0.037,0,0.072,0.006,0.109,0.018c0.035,0.013,0.071,0.024,0.107,0.036V271.243z"/>
			<path d="M166.823,271.243h-2.988v7.668h-3.402v-7.668h-2.988v-2.7h9.379V271.243z"/>
			<path d="M177.173,278.785c-0.516,0.108-1.044,0.191-1.584,0.252c-0.54,0.06-1.129,0.09-1.764,0.09
				c-2.028,0-3.606-0.498-4.734-1.494c-1.128-0.995-1.691-2.321-1.691-3.978c0-1.788,0.555-3.126,1.664-4.014
				c1.109-0.889,2.463-1.332,4.059-1.332c0.276,0,0.58,0.018,0.91,0.054s0.662,0.102,0.998,0.198
				c0.828,0.24,1.588,0.753,2.277,1.539c0.689,0.785,1.035,2.078,1.035,3.879c0,0.048,0,0.099,0,0.152c0,0.055,0,0.105,0,0.153
				c0,0.061-0.003,0.114-0.009,0.162c-0.007,0.048-0.009,0.102-0.009,0.162h-6.408c-0.012-0.024-0.03-0.051-0.055-0.081
				c-0.023-0.03-0.041-0.063-0.054-0.1c-0.06-0.107-0.11-0.236-0.153-0.387c-0.041-0.149-0.063-0.32-0.063-0.513
				c0-0.108,0.006-0.24,0.018-0.396c0.012-0.155,0.043-0.329,0.09-0.521h3.367c-0.025-0.54-0.154-0.93-0.388-1.17
				s-0.489-0.396-0.765-0.469c-0.133-0.023-0.258-0.041-0.379-0.054c-0.119-0.012-0.233-0.018-0.342-0.018
				c-0.816,0-1.404,0.246-1.764,0.737c-0.359,0.492-0.54,1.11-0.54,1.854c0,0.061,0,0.12,0,0.18c0,0.061,0.006,0.12,0.019,0.181
				c0.06,0.672,0.351,1.29,0.873,1.854c0.521,0.564,1.473,0.846,2.853,0.846c0.444,0,0.854-0.032,1.233-0.099
				c0.377-0.065,0.746-0.165,1.106-0.297c0.036-0.012,0.069-0.024,0.099-0.036c0.03-0.012,0.063-0.023,0.1-0.036V278.785z"/>
		</g>
		<g enable-background="new    ">
			<path d="M183.149,265.554l-0.595,9.379h-2.592l-0.612-9.379H183.149z M179.989,276.157c0.354-0.36,0.777-0.54,1.27-0.54
				s0.912,0.177,1.26,0.531c0.348,0.354,0.521,0.776,0.521,1.269s-0.174,0.912-0.521,1.26c-0.348,0.349-0.768,0.522-1.26,0.522
				s-0.915-0.178-1.27-0.531c-0.354-0.354-0.531-0.771-0.531-1.251C179.458,276.937,179.636,276.517,179.989,276.157z"/>
		</g>
		<v:paragraph  v:horizAlign="1"></v:paragraph>
		<v:tabList></v:tabList>
	</g>
</g>
</svg>
